<svg width="322" height="38" viewBox="0 0 322 38" fill="none" xmlns="http://www.w3.org/2000/svg">
<path d="M0.394057 29.6649C0.0857268 29.6649 -0.0440967 29.5212 0.00999643 29.2282L2.79038 13.0886C2.79038 12.9117 2.75793 12.8288 2.61728 12.8288H1.33528C1.08104 12.8288 0.978263 12.6796 1.03777 12.3921L1.62197 8.98735C1.68147 8.6944 1.82212 8.55069 2.04931 8.55069H3.34213C3.41348 8.54926 3.48214 8.52258 3.53639 8.47521C3.59065 8.42784 3.62714 8.3627 3.63964 8.29091L3.81274 7.18545C4.26712 4.60606 5.14884 2.76364 6.45789 1.65818C7.76695 0.552727 9.61693 0 12.0078 0H14.2743C14.5556 0 14.6692 0.143709 14.6151 0.436655L13.9336 4.30575C13.9266 4.42695 13.8734 4.54054 13.7854 4.62216C13.6975 4.70378 13.5817 4.74695 13.4629 4.7424H12.2675C11.5691 4.67847 10.8695 4.85135 10.2769 5.23433C9.80404 5.74537 9.52416 6.41136 9.48711 7.1136L9.27073 8.24669C9.27073 8.4512 9.31401 8.55069 9.48711 8.55069H12.7327C13.041 8.55069 13.1708 8.6944 13.1168 8.98735L12.5163 12.3921C12.504 12.5193 12.4431 12.6364 12.347 12.7181C12.2508 12.7998 12.1271 12.8396 12.0024 12.8288H8.75685C8.72003 12.8242 8.68269 12.8274 8.64713 12.8382C8.61157 12.8489 8.57856 12.8671 8.55015 12.8914C8.52174 12.9158 8.49853 12.9459 8.48198 12.9798C8.46543 13.0137 8.45588 13.0507 8.45393 13.0886L5.73305 29.2282C5.67895 29.5212 5.5329 29.6649 5.30571 29.6649H0.394057Z" fill="black"/>
<path d="M19.5279 38.0001C18.0005 38.041 16.4855 37.7094 15.1085 37.0329C13.9611 36.4887 12.9797 35.6367 12.2686 34.5677C12.2204 34.5205 12.1836 34.4624 12.1613 34.3981C12.1389 34.3337 12.1317 34.2649 12.1401 34.1972C12.1485 34.1295 12.1724 34.0647 12.2097 34.0081C12.2471 33.9515 12.2969 33.9046 12.3552 33.8713L15.5142 31.1684C15.5573 31.1198 15.6099 31.0809 15.6686 31.0543C15.7273 31.0277 15.7908 31.014 15.855 31.014C15.9192 31.014 15.9827 31.0277 16.0414 31.0543C16.1001 31.0809 16.1527 31.1198 16.1958 31.1684C16.7068 31.7034 17.281 32.1713 17.9051 32.5613C18.5411 32.9279 19.2632 33.1095 19.9931 33.0864C22.6978 33.0864 24.3206 31.4872 24.8615 28.2887L25.2023 26.3652H25.159C24.5821 27.1458 23.8285 27.7717 22.9628 28.1892C21.9457 28.6647 20.8353 28.8953 19.7172 28.8636C17.6942 28.8636 16.212 28.2556 15.2546 27.034C14.2971 25.8125 13.8049 24.1875 13.8049 22.1092C13.8112 21.4238 13.8546 20.7392 13.9347 20.0586C14.0158 19.2737 14.1402 18.4668 14.2971 17.6377C14.454 16.8086 14.6433 15.9795 14.8705 15.1946C15.0713 14.4693 15.3282 13.7614 15.6386 13.0777C17.1749 9.73182 19.6668 8.0589 23.1143 8.0589C24.19 8.01167 25.2584 8.25979 26.2084 8.77745C26.931 9.20168 27.5002 9.85307 27.8312 10.6346H27.8745L28.172 8.97643C28.1748 8.91616 28.1892 8.85704 28.2143 8.80246C28.2395 8.74788 28.2749 8.69891 28.3187 8.65834C28.3624 8.61778 28.4135 8.58643 28.4691 8.56609C28.5247 8.54574 28.5836 8.5368 28.6426 8.53977H33.4244C33.7057 8.53977 33.8193 8.68348 33.7652 8.97643L30.6278 27.6365C30.3839 29.2929 29.9236 30.9084 29.2593 32.4397C28.7274 33.6546 27.9579 34.7456 26.9982 35.6455C26.0616 36.4875 24.9527 37.105 23.7526 37.4529C22.3777 37.8433 20.9546 38.0277 19.5279 38.0001ZM22.3029 23.994C23.7526 23.994 24.8507 23.2092 25.5863 21.6394C25.7742 21.2569 25.9316 20.8595 26.057 20.451C26.2077 19.9785 26.3287 19.4967 26.4194 19.0084C26.5222 18.4999 26.5979 18.008 26.6574 17.5271C26.7109 17.0851 26.7398 16.6404 26.7439 16.195C26.7984 15.3544 26.5797 14.5189 26.1219 13.8183C25.8653 13.5225 25.5438 13.2931 25.1836 13.149C24.8235 13.0049 24.435 12.9501 24.0501 12.9892C22.6004 12.9892 21.5023 13.7741 20.7667 15.3438C20.5783 15.7433 20.4209 16.1573 20.296 16.582C20.146 17.0547 20.0249 17.5365 19.9336 18.0246C19.8308 18.5331 19.7551 19.0361 19.6956 19.528C19.6437 19.9627 19.6148 20.4 19.6091 20.838C19.557 21.6714 19.7757 22.4991 20.2311 23.1926C20.4903 23.4834 20.8131 23.7075 21.1731 23.8468C21.5331 23.9861 21.9202 24.0365 22.3029 23.994Z" fill="black"/>
<path d="M46.5517 29.6649C46.2651 29.6649 46.1515 29.5212 46.211 29.2283L48.3044 17.1014C48.5281 16.1071 48.4294 15.0653 48.0231 14.1333C47.8149 13.7592 47.5044 13.4554 47.1296 13.259C46.7549 13.0627 46.3322 12.9823 45.9134 13.0278C45.444 13.0183 44.9777 13.1082 44.5439 13.2917C44.11 13.4753 43.7181 13.7487 43.3927 14.0946C42.6647 14.9016 42.1883 15.9118 42.0242 16.9964L39.9308 29.2117C39.8767 29.5046 39.736 29.6484 39.5088 29.6484H34.6188C34.3051 29.6484 34.1752 29.5046 34.2347 29.2117L37.7346 8.97083C37.7416 8.84962 37.7947 8.73603 37.8827 8.65441C37.9707 8.57279 38.0864 8.52963 38.2052 8.53417H43.1168C43.3981 8.53417 43.5117 8.67788 43.4576 8.97083L43.1547 10.5406H43.198C43.8486 9.8038 44.633 9.20311 45.5077 8.77184C46.547 8.27153 47.686 8.02551 48.8345 8.0533C49.8129 8.02552 50.7846 8.22787 51.6744 8.64472C52.4268 9.01132 53.0639 9.58569 53.5135 10.3029C53.9737 11.0573 54.2638 11.907 54.3628 12.7902C54.4883 13.8358 54.4536 14.895 54.26 15.9297L51.8907 29.2283C51.8837 29.3495 51.8306 29.4631 51.7426 29.5447C51.6546 29.6263 51.5389 29.6695 51.4201 29.6649H46.5517Z" fill="black"/>
<path d="M55.0504 24.1709C55.056 24.0501 55.108 23.9366 55.1951 23.8548C55.2822 23.773 55.3974 23.7297 55.5156 23.7342H60.3407C60.6544 23.7342 60.7842 23.8779 60.7247 24.1709L59.8755 29.2283C59.8685 29.3495 59.8153 29.4631 59.7273 29.5447C59.6394 29.6264 59.5236 29.6695 59.4049 29.665H54.5797C54.266 29.665 54.1362 29.5213 54.1957 29.2283L55.0504 24.1709Z" fill="black"/>
<path d="M77.299 14.3266C77.2945 14.2951 77.2972 14.2628 77.307 14.2326C77.3168 14.2023 77.3334 14.1747 77.3555 14.1522C77.3776 14.1296 77.4045 14.1127 77.4342 14.1026C77.4638 14.0926 77.4953 14.0898 77.5262 14.0945H87.4307C87.4615 14.0898 87.4931 14.0926 87.5227 14.1026C87.5523 14.1127 87.5793 14.1296 87.6014 14.1522C87.6234 14.1747 87.64 14.2023 87.6499 14.2326C87.6597 14.2628 87.6624 14.2951 87.6578 14.3266V16.8084C87.6624 16.8399 87.6597 16.8721 87.6499 16.9024C87.64 16.9327 87.6234 16.9602 87.6014 16.9828C87.5793 17.0054 87.5523 17.0223 87.5227 17.0323C87.4931 17.0424 87.4615 17.0452 87.4307 17.0405H80.7718C80.7534 17.0377 80.7346 17.0394 80.717 17.0453C80.6993 17.0513 80.6833 17.0614 80.6701 17.0748C80.657 17.0882 80.6471 17.1046 80.6413 17.1227C80.6354 17.1407 80.6338 17.1599 80.6366 17.1787V20.4951C80.6338 20.5138 80.6354 20.533 80.6413 20.5511C80.6471 20.5691 80.657 20.5855 80.6701 20.5989C80.6833 20.6124 80.6993 20.6225 80.717 20.6284C80.7346 20.6344 80.7534 20.636 80.7718 20.6332H86.3163C86.3472 20.6286 86.3787 20.6314 86.4084 20.6414C86.438 20.6514 86.465 20.6684 86.487 20.6909C86.5091 20.7135 86.5257 20.741 86.5355 20.7713C86.5453 20.8016 86.5481 20.8338 86.5435 20.8654V23.325C86.5481 23.3566 86.5453 23.3888 86.5355 23.4191C86.5257 23.4494 86.5091 23.4769 86.487 23.4994C86.465 23.522 86.438 23.539 86.4084 23.549C86.3787 23.559 86.3472 23.5618 86.3163 23.5572H80.7718C80.6798 23.5572 80.6366 23.6069 80.6366 23.7009V29.6482C80.6411 29.6798 80.6384 29.712 80.6286 29.7423C80.6188 29.7726 80.6022 29.8001 80.5801 29.8226C80.558 29.8452 80.5311 29.8622 80.5014 29.8722C80.4718 29.8822 80.4403 29.885 80.4094 29.8804H77.5262C77.4953 29.885 77.4638 29.8822 77.4342 29.8722C77.4045 29.8622 77.3776 29.8452 77.3555 29.8226C77.3334 29.8001 77.3168 29.7726 77.307 29.7423C77.2972 29.712 77.2945 29.6798 77.299 29.6482V14.3266Z" fill="black"/>
<path d="M94.9049 30.1346C94.0937 30.1428 93.2871 30.0101 92.5194 29.7422C91.811 29.4992 91.1647 29.0977 90.6275 28.567C90.0904 28.0363 89.6759 27.3898 89.4145 26.6745C89.1079 25.8448 88.9575 24.9635 88.9709 24.0767V14.3266C88.9663 14.2951 88.9691 14.2628 88.9789 14.2326C88.9887 14.2023 89.0053 14.1747 89.0274 14.1522C89.0494 14.1296 89.0764 14.1127 89.106 14.1026C89.1357 14.0926 89.1672 14.0898 89.1981 14.0945H92.0867C92.1175 14.0898 92.1491 14.0926 92.1787 14.1026C92.2083 14.1127 92.2353 14.1296 92.2574 14.1522C92.2794 14.1747 92.2961 14.2023 92.3059 14.2326C92.3157 14.2628 92.3184 14.2951 92.3138 14.3266V24.1707C92.2622 24.9624 92.5144 25.7436 93.0171 26.3484C93.2599 26.6067 93.5539 26.8089 93.8796 26.9415C94.2052 27.074 94.5548 27.1337 94.9049 27.1167C95.2507 27.1315 95.5957 27.0707 95.9166 26.9382C96.2375 26.8057 96.527 26.6046 96.7657 26.3484C97.2683 25.7436 97.5206 24.9624 97.4689 24.1707V14.3266C97.4644 14.2951 97.4671 14.2628 97.4769 14.2326C97.4867 14.2023 97.5033 14.1747 97.5254 14.1522C97.5475 14.1296 97.5744 14.1127 97.6041 14.1026C97.6337 14.0926 97.6652 14.0898 97.6961 14.0945H100.612C100.643 14.0898 100.674 14.0926 100.704 14.1026C100.733 14.1127 100.76 14.1296 100.782 14.1522C100.805 14.1747 100.821 14.2023 100.831 14.2326C100.841 14.2628 100.843 14.2951 100.839 14.3266V24.0767C100.852 24.9635 100.702 25.8448 100.395 26.6745C100.125 27.3929 99.706 28.0433 99.1674 28.5815C98.6325 29.0958 97.9988 29.491 97.3066 29.7422C96.5341 30.0132 95.7216 30.146 94.9049 30.1346Z" fill="black"/>
<path d="M102.777 14.3266C102.773 14.2951 102.775 14.2628 102.785 14.2326C102.795 14.2023 102.811 14.1747 102.834 14.1522C102.856 14.1296 102.883 14.1127 102.912 14.1026C102.942 14.0926 102.973 14.0898 103.004 14.0945H105.887C105.918 14.0898 105.95 14.0926 105.979 14.1026C106.009 14.1127 106.036 14.1296 106.058 14.1522C106.08 14.1747 106.097 14.2023 106.107 14.2326C106.116 14.2628 106.119 14.2951 106.115 14.3266V21.1528L111.253 14.3045C111.293 14.2371 111.349 14.1819 111.417 14.1449C111.485 14.1079 111.561 14.0905 111.638 14.0945H114.932C114.963 14.0913 114.994 14.0989 115.021 14.1159C115.047 14.1329 115.067 14.1584 115.078 14.1884C115.088 14.2243 115.088 14.2624 115.079 14.2984C115.069 14.3345 115.05 14.3672 115.024 14.3929L110.35 20.3845L115.462 29.5985C115.565 29.7864 115.521 29.8804 115.321 29.8804H111.973C111.902 29.8824 111.833 29.8637 111.772 29.8265C111.712 29.7893 111.663 29.735 111.632 29.6703L108.132 23.0376L106.109 25.6354V29.6537C106.114 29.6853 106.111 29.7175 106.101 29.7478C106.091 29.7781 106.075 29.8056 106.053 29.8282C106.031 29.8507 106.004 29.8677 105.974 29.8777C105.944 29.8877 105.913 29.8905 105.882 29.8859H102.999C102.968 29.8905 102.936 29.8877 102.907 29.8777C102.877 29.8677 102.85 29.8507 102.828 29.8282C102.806 29.8056 102.789 29.7781 102.78 29.7478C102.77 29.7175 102.767 29.6853 102.772 29.6537L102.777 14.3266Z" fill="black"/>
<path d="M122.395 30.1346C121.584 30.1428 120.777 30.0101 120.01 29.7422C119.301 29.4992 118.655 29.0977 118.118 28.567C117.581 28.0363 117.166 27.3898 116.905 26.6745C116.598 25.8448 116.448 24.9635 116.461 24.0767V14.3266C116.457 14.2951 116.459 14.2628 116.469 14.2326C116.479 14.2023 116.496 14.1747 116.518 14.1522C116.54 14.1296 116.567 14.1127 116.596 14.1026C116.626 14.0926 116.657 14.0898 116.688 14.0945H119.577C119.608 14.0898 119.639 14.0926 119.669 14.1026C119.699 14.1127 119.726 14.1296 119.748 14.1522C119.77 14.1747 119.786 14.2023 119.796 14.2326C119.806 14.2628 119.809 14.2951 119.804 14.3266V24.1707C119.752 24.9624 120.005 25.7436 120.507 26.3484C120.75 26.6067 121.044 26.8089 121.37 26.9415C121.695 27.074 122.045 27.1337 122.395 27.1167C122.741 27.1315 123.086 27.0707 123.407 26.9382C123.728 26.8057 124.017 26.6046 124.256 26.3484C124.759 25.7436 125.011 24.9624 124.959 24.1707V14.3266C124.955 14.2951 124.957 14.2628 124.967 14.2326C124.977 14.2023 124.994 14.1747 125.016 14.1522C125.038 14.1296 125.065 14.1127 125.094 14.1026C125.124 14.0926 125.155 14.0898 125.186 14.0945H128.075C128.106 14.0898 128.137 14.0926 128.167 14.1026C128.197 14.1127 128.224 14.1296 128.246 14.1522C128.268 14.1747 128.284 14.2023 128.294 14.2326C128.304 14.2628 128.307 14.2951 128.302 14.3266V24.0767C128.316 24.9635 128.165 25.8448 127.859 26.6745C127.597 27.3878 127.184 28.0329 126.649 28.5634C126.114 29.0938 125.47 29.4964 124.764 29.7422C124.002 30.0101 123.201 30.1429 122.395 30.1346Z" fill="black"/>
<path d="M135.936 30.1348C134.694 30.1647 133.469 29.8351 132.403 29.1841C131.375 28.5257 130.625 27.4987 130.299 26.3044C130.211 26.0383 130.139 25.767 130.083 25.4919C130.026 25.1995 129.985 24.9043 129.958 24.6075C129.931 24.2869 129.904 23.9111 129.893 23.502C129.883 23.093 129.893 22.579 129.893 21.9931C129.893 21.4072 129.893 20.8876 129.893 20.4842C129.893 20.0807 129.931 19.6938 129.958 19.3787C129.985 19.0837 130.026 18.7903 130.083 18.4999C130.139 18.2248 130.211 17.9534 130.299 17.6874C130.631 16.499 131.38 15.4776 132.403 14.8187C133.478 14.1884 134.696 13.8567 135.936 13.8567C137.175 13.8567 138.393 14.1884 139.468 14.8187C140.489 15.4782 141.237 16.4997 141.567 17.6874C141.655 17.9534 141.727 18.2248 141.783 18.4999C141.842 18.7899 141.884 19.0834 141.908 19.3787C141.94 19.7048 141.962 20.0751 141.978 20.4842C141.994 20.8932 141.978 21.4017 141.978 21.9931C141.978 22.5845 141.978 23.0986 141.978 23.502C141.978 23.9055 141.94 24.2924 141.908 24.6075C141.884 24.9046 141.842 25.2 141.783 25.4919C141.727 25.767 141.655 26.0383 141.567 26.3044C141.242 27.4978 140.494 28.5246 139.468 29.1841C138.402 29.8351 137.177 30.1647 135.936 30.1348ZM135.936 27.1169C136.494 27.1398 137.044 26.9768 137.504 26.6526C137.918 26.3323 138.219 25.8846 138.364 25.3758C138.417 25.2213 138.455 25.0622 138.478 24.9004C138.511 24.7236 138.538 24.5025 138.559 24.2482C138.581 23.994 138.597 23.6955 138.602 23.3086C138.608 22.9217 138.602 22.4961 138.602 21.9876C138.602 21.4791 138.602 21.0369 138.602 20.661C138.602 20.2852 138.602 19.9812 138.559 19.7214C138.516 19.4616 138.511 19.2516 138.478 19.0747C138.455 18.913 138.417 18.7538 138.364 18.5994C138.219 18.0905 137.918 17.6429 137.504 17.3226C137.035 17.0195 136.491 16.8587 135.936 16.8587C135.38 16.8587 134.836 17.0195 134.367 17.3226C133.951 17.6409 133.647 18.0891 133.501 18.5994C133.454 18.7553 133.416 18.914 133.388 19.0747C133.361 19.2516 133.334 19.4671 133.312 19.7214C133.291 19.9756 133.274 20.2741 133.263 20.661C133.253 21.0479 133.263 21.4735 133.263 21.9876C133.263 22.5016 133.263 22.9383 133.263 23.3086C133.263 23.6789 133.263 23.994 133.312 24.2482C133.361 24.5025 133.361 24.7236 133.388 24.9004C133.416 25.0611 133.454 25.2199 133.501 25.3758C133.647 25.8861 133.951 26.3342 134.367 26.6526C134.827 26.9776 135.377 27.1406 135.936 27.1169Z" fill="black"/>
<path d="M143.639 14.3266C143.634 14.2951 143.637 14.2628 143.647 14.2326C143.657 14.2023 143.673 14.1747 143.695 14.1522C143.717 14.1296 143.744 14.1127 143.774 14.1026C143.804 14.0926 143.835 14.0898 143.866 14.0945H146.749C146.78 14.0898 146.812 14.0926 146.841 14.1026C146.871 14.1127 146.898 14.1296 146.92 14.1522C146.942 14.1747 146.959 14.2023 146.968 14.2326C146.978 14.2628 146.981 14.2951 146.976 14.3266V21.1528L152.11 14.3045C152.15 14.2371 152.208 14.182 152.276 14.1451C152.345 14.1081 152.422 14.0907 152.499 14.0945H155.788C155.819 14.0913 155.851 14.0989 155.877 14.1159C155.903 14.1329 155.924 14.1584 155.934 14.1884C155.943 14.2248 155.942 14.263 155.932 14.299C155.921 14.3349 155.902 14.3674 155.875 14.3929L151.196 20.3845L156.329 29.5985C156.437 29.7864 156.389 29.8804 156.194 29.8804H152.856C152.786 29.8824 152.716 29.8637 152.656 29.8265C152.595 29.7893 152.547 29.735 152.516 29.6703L149.016 23.0376L146.993 25.6354V29.6537C146.997 29.6853 146.994 29.7175 146.985 29.7478C146.975 29.7781 146.958 29.8056 146.936 29.8282C146.914 29.8507 146.887 29.8677 146.857 29.8777C146.828 29.8877 146.796 29.8905 146.765 29.8859H143.888C143.857 29.8905 143.825 29.8877 143.796 29.8777C143.766 29.8677 143.739 29.8507 143.717 29.8282C143.695 29.8056 143.678 29.7781 143.668 29.7478C143.659 29.7175 143.656 29.6853 143.66 29.6537L143.639 14.3266Z" fill="black"/>
<path d="M162.447 14.3266C162.462 14.2584 162.5 14.1979 162.555 14.1554C162.609 14.113 162.676 14.0914 162.745 14.0945H165.606C165.674 14.0905 165.741 14.1119 165.795 14.1545C165.848 14.1972 165.885 14.2584 165.898 14.3266L171.124 29.6482C171.172 29.803 171.124 29.8804 170.967 29.8804H168.013C167.945 29.8843 167.878 29.863 167.825 29.8203C167.771 29.7776 167.734 29.7165 167.721 29.6482L166.834 26.8846H161.425L160.559 29.6482C160.546 29.7165 160.509 29.7776 160.456 29.8203C160.402 29.863 160.335 29.8843 160.267 29.8804H157.292C157.14 29.8804 157.086 29.803 157.13 29.6482L162.447 14.3266ZM165.925 23.9827L164.173 18.4555H164.108L162.355 23.9827H165.925Z" fill="black"/>
<path d="M177.424 26.3044C177.336 26.0383 177.264 25.767 177.208 25.4919C177.149 25.2 177.107 24.9046 177.083 24.6075C177.051 24.2869 177.029 23.9111 177.013 23.502C176.997 23.093 177.013 22.579 177.013 21.9931C177.013 21.4072 177.013 20.8876 177.013 20.4841C177.013 20.0807 177.051 19.6937 177.083 19.3787C177.107 19.0834 177.148 18.7899 177.208 18.4999C177.264 18.2248 177.336 17.9534 177.424 17.6873C177.749 16.4939 178.497 15.4671 179.523 14.8076C180.593 14.1438 181.825 13.8009 183.077 13.8183C183.743 13.8095 184.408 13.8951 185.051 14.0725C185.607 14.2349 186.135 14.4808 186.62 14.8021C187.066 15.0917 187.464 15.4518 187.799 15.8689C188.122 16.2703 188.379 16.7219 188.562 17.2065C188.582 17.2345 188.595 17.2667 188.601 17.3007C188.607 17.3346 188.606 17.3696 188.597 17.403C188.588 17.4363 188.572 17.4673 188.55 17.4935C188.528 17.5198 188.501 17.5407 188.47 17.5547L186.079 18.5993C185.911 18.6436 185.803 18.5993 185.76 18.4833C185.503 17.9917 185.131 17.5723 184.678 17.2617C184.2 16.9759 183.652 16.8358 183.099 16.8583C182.521 16.8254 181.949 16.9929 181.476 17.3336C181.06 17.6576 180.757 18.1088 180.61 18.6215C180.563 18.7774 180.525 18.9361 180.497 19.0968C180.464 19.2737 180.437 19.4892 180.416 19.749C180.394 20.0088 180.378 20.3017 180.372 20.6776C180.367 21.0535 180.372 21.4735 180.372 21.9876C180.372 22.5016 180.372 22.9383 180.372 23.3086C180.372 23.6789 180.372 23.994 180.416 24.2482C180.459 24.5025 180.464 24.7236 180.497 24.9004C180.525 25.0611 180.563 25.2198 180.61 25.3758C180.758 25.888 181.066 26.3365 181.487 26.6526C181.965 26.98 182.534 27.1426 183.109 27.1169C183.653 27.1271 184.189 26.9816 184.656 26.6968C185.103 26.4282 185.435 25.9983 185.587 25.4919C185.652 25.2718 185.697 25.0461 185.722 24.8175C185.755 24.5258 185.77 24.2323 185.765 23.9387C185.765 23.8447 185.722 23.795 185.63 23.795H183.542C183.511 23.7996 183.48 23.7968 183.45 23.7868C183.42 23.7768 183.393 23.7598 183.371 23.7373C183.349 23.7147 183.333 23.6872 183.323 23.6569C183.313 23.6266 183.31 23.5944 183.315 23.5628V21.3519C183.31 21.3204 183.313 21.2882 183.323 21.2579C183.333 21.2276 183.349 21.2001 183.371 21.1775C183.393 21.1549 183.42 21.138 183.45 21.1279C183.48 21.1179 183.511 21.1151 183.542 21.1198H188.859C188.89 21.1151 188.922 21.1179 188.952 21.1279C188.981 21.138 189.008 21.1549 189.03 21.1775C189.052 21.2001 189.069 21.2276 189.079 21.2579C189.088 21.2882 189.091 21.3204 189.087 21.3519V22.6619C189.087 23.3583 189.054 24.0216 188.995 24.6351C188.953 25.1717 188.853 25.7018 188.697 26.2159C188.355 27.3985 187.62 28.4224 186.62 29.1122C185.565 29.8143 184.325 30.171 183.066 30.1348C181.809 30.169 180.567 29.8394 179.485 29.1841C178.473 28.5176 177.739 27.4916 177.424 26.3044Z" fill="black"/>
<path d="M199.727 29.8804C199.653 29.8837 199.581 29.8631 199.519 29.8213C199.458 29.7796 199.411 29.7189 199.386 29.6482L196.73 23.8667H194.664C194.646 23.8639 194.627 23.8655 194.609 23.8715C194.591 23.8774 194.575 23.8875 194.562 23.901C194.549 23.9144 194.539 23.9308 194.533 23.9489C194.528 23.9669 194.526 23.9861 194.529 24.0049V29.6482C194.533 29.6798 194.531 29.712 194.521 29.7423C194.511 29.7726 194.494 29.8001 194.472 29.8226C194.45 29.8452 194.423 29.8622 194.394 29.8722C194.364 29.8822 194.332 29.885 194.302 29.8804H191.413C191.382 29.885 191.351 29.8822 191.321 29.8722C191.291 29.8622 191.264 29.8452 191.242 29.8226C191.22 29.8001 191.204 29.7726 191.194 29.7423C191.184 29.712 191.181 29.6798 191.186 29.6482V14.3266C191.181 14.2951 191.184 14.2628 191.194 14.2326C191.204 14.2023 191.22 14.1747 191.242 14.1522C191.264 14.1296 191.291 14.1127 191.321 14.1026C191.351 14.0926 191.382 14.0898 191.413 14.0945H197.569C198.305 14.0836 199.037 14.2052 199.732 14.4537C200.342 14.6794 200.901 15.027 201.377 15.4763C201.844 15.9075 202.213 16.4375 202.459 17.0295C202.714 17.6544 202.843 18.3256 202.837 19.0027C202.859 19.947 202.605 20.8764 202.107 21.6724C201.614 22.4374 200.91 23.0356 200.084 23.3913L203.129 29.6095C203.146 29.6401 203.154 29.6743 203.154 29.709C203.154 29.7437 203.146 29.7779 203.129 29.8085C203.114 29.8363 203.091 29.859 203.063 29.8737C203.035 29.8884 203.004 29.8946 202.973 29.8914L199.727 29.8804ZM198.91 20.4508C199.096 20.265 199.24 20.0404 199.334 19.7925C199.427 19.5445 199.467 19.2789 199.451 19.0137C199.465 18.7521 199.425 18.4903 199.331 18.2462C199.238 18.002 199.094 17.7813 198.91 17.5988C198.492 17.2212 197.948 17.0231 197.39 17.046H194.686C194.667 17.0432 194.648 17.0449 194.631 17.0508C194.613 17.0568 194.597 17.0669 194.584 17.0803C194.571 17.0938 194.561 17.1102 194.555 17.1282C194.549 17.1462 194.548 17.1654 194.55 17.1842V20.8322C194.548 20.851 194.549 20.8702 194.555 20.8882C194.561 20.9063 194.571 20.9227 194.584 20.9361C194.597 20.9495 194.613 20.9596 194.631 20.9656C194.648 20.9716 194.667 20.9732 194.686 20.9704H197.39C197.943 21.0024 198.487 20.8165 198.91 20.4508Z" fill="black"/>
<path d="M210.567 30.1348C209.326 30.1656 208.101 29.8359 207.035 29.1841C206.007 28.5257 205.257 27.4987 204.931 26.3044C204.842 26.0383 204.77 25.767 204.714 25.4919C204.658 25.1995 204.616 24.9043 204.59 24.6075C204.563 24.2869 204.536 23.9111 204.525 23.502C204.514 23.093 204.498 22.579 204.498 21.9931C204.498 21.4072 204.498 20.8876 204.525 20.4842C204.552 20.0807 204.563 19.6938 204.59 19.3787C204.616 19.0837 204.658 18.7903 204.714 18.4999C204.77 18.2248 204.842 17.9534 204.931 17.6874C205.263 16.499 206.012 15.4776 207.035 14.8187C208.11 14.1884 209.328 13.8567 210.567 13.8567C211.807 13.8567 213.025 14.1884 214.1 14.8187C215.121 15.4782 215.868 16.4997 216.198 17.6874C216.287 17.9534 216.359 18.2248 216.415 18.4999C216.474 18.7899 216.516 19.0834 216.539 19.3787C216.572 19.7048 216.593 20.0751 216.609 20.4842C216.626 20.8932 216.609 21.4017 216.609 21.9931C216.609 22.5845 216.609 23.0986 216.609 23.502C216.609 23.9055 216.572 24.2924 216.539 24.6075C216.516 24.9046 216.474 25.2 216.415 25.4919C216.359 25.767 216.287 26.0383 216.198 26.3044C215.874 27.4978 215.126 28.5246 214.1 29.1841C213.033 29.8351 211.809 30.1647 210.567 30.1348ZM210.567 27.1169C211.126 27.1398 211.676 26.9768 212.136 26.6526C212.549 26.3323 212.851 25.8846 212.996 25.3758C213.048 25.2213 213.086 25.0622 213.11 24.9004C213.142 24.7236 213.169 24.5025 213.191 24.2482C213.212 23.994 213.229 23.6955 213.234 23.3086C213.24 22.9217 213.234 22.4961 213.234 21.9876C213.234 21.4791 213.234 21.0369 213.234 20.661C213.234 20.2852 213.234 19.9812 213.191 19.7214C213.148 19.4616 213.142 19.2516 213.11 19.0747C213.086 18.913 213.048 18.7538 212.996 18.5994C212.851 18.0905 212.549 17.6429 212.136 17.3226C211.667 17.0195 211.123 16.8587 210.567 16.8587C210.012 16.8587 209.468 17.0195 208.999 17.3226C208.582 17.6409 208.278 18.0891 208.133 18.5994C208.086 18.7553 208.048 18.914 208.02 19.0747C207.992 19.2516 207.965 19.4671 207.944 19.7214C207.922 19.9756 207.906 20.2741 207.895 20.661C207.884 21.0479 207.895 21.4735 207.895 21.9876C207.895 22.5016 207.895 22.9383 207.895 23.3086C207.895 23.6789 207.895 23.994 207.944 24.2482C207.992 24.5025 207.992 24.7236 208.02 24.9004C208.048 25.0611 208.086 25.2199 208.133 25.3758C208.278 25.8861 208.582 26.3342 208.999 26.6526C209.458 26.9776 210.009 27.1406 210.567 27.1169Z" fill="black"/>
<path d="M230.085 29.8805C230.016 29.8847 229.948 29.8635 229.894 29.8209C229.839 29.7783 229.801 29.7171 229.787 29.6484L227.083 19.8264H227.039L224.335 29.6484C224.322 29.7166 224.285 29.7778 224.231 29.8205C224.178 29.8631 224.111 29.8845 224.043 29.8805H221.782C221.716 29.8816 221.652 29.8588 221.602 29.8163C221.551 29.7738 221.517 29.7142 221.506 29.6484L217.508 14.3268C217.476 14.172 217.541 14.0946 217.692 14.0946H220.619C220.685 14.0899 220.75 14.1113 220.802 14.1545C220.853 14.1977 220.886 14.2594 220.894 14.3268L223.118 24.2372H223.166L225.801 14.3268C225.815 14.2581 225.853 14.1969 225.907 14.1543C225.962 14.1116 226.03 14.0905 226.098 14.0946H228.073C228.137 14.0938 228.2 14.1168 228.25 14.1594C228.3 14.202 228.333 14.2614 228.343 14.3268L231.048 24.2372H231.096L233.26 14.3268C233.26 14.172 233.363 14.0946 233.531 14.0946H236.441C236.592 14.0946 236.652 14.172 236.619 14.3268L232.643 29.6484C232.634 29.7184 232.598 29.7818 232.544 29.8252C232.489 29.8685 232.42 29.8884 232.351 29.8805H230.085Z" fill="black"/>
<path d="M242.234 29.8804C242.082 29.8804 242.012 29.803 242.012 29.6482V17.2727C242.012 17.1787 241.963 17.1345 241.871 17.1345H237.966C237.935 17.1391 237.903 17.1363 237.874 17.1263C237.844 17.1163 237.817 17.0993 237.795 17.0768C237.773 17.0542 237.756 17.0267 237.746 16.9964C237.737 16.9661 237.734 16.9339 237.738 16.9023V14.3266C237.734 14.2951 237.737 14.2628 237.746 14.2326C237.756 14.2023 237.773 14.1747 237.795 14.1522C237.817 14.1296 237.844 14.1127 237.874 14.1026C237.903 14.0926 237.935 14.0898 237.966 14.0945H249.368C249.399 14.0898 249.431 14.0926 249.461 14.1026C249.49 14.1127 249.517 14.1296 249.539 14.1522C249.561 14.1747 249.578 14.2023 249.588 14.2326C249.597 14.2628 249.6 14.2951 249.596 14.3266V16.9023C249.6 16.9339 249.597 16.9661 249.588 16.9964C249.578 17.0267 249.561 17.0542 249.539 17.0768C249.517 17.0993 249.49 17.1163 249.461 17.1263C249.431 17.1363 249.399 17.1391 249.368 17.1345H245.463C245.445 17.1317 245.426 17.1333 245.408 17.1393C245.39 17.1452 245.374 17.1553 245.361 17.1688C245.348 17.1822 245.338 17.1986 245.332 17.2166C245.327 17.2347 245.325 17.2539 245.328 17.2727V29.6482C245.332 29.6798 245.33 29.712 245.32 29.7423C245.31 29.7726 245.293 29.8001 245.271 29.8226C245.249 29.8452 245.222 29.8622 245.193 29.8722C245.163 29.8822 245.131 29.885 245.101 29.8804H242.234Z" fill="black"/>
<path d="M251.029 14.3266C251.025 14.2951 251.028 14.2628 251.037 14.2326C251.047 14.2023 251.064 14.1747 251.086 14.1522C251.108 14.1296 251.135 14.1127 251.165 14.1026C251.194 14.0926 251.226 14.0898 251.257 14.0945H254.14C254.171 14.0898 254.202 14.0926 254.232 14.1026C254.262 14.1127 254.288 14.1296 254.311 14.1522C254.333 14.1747 254.349 14.2023 254.359 14.2326C254.369 14.2628 254.372 14.2951 254.367 14.3266V20.2463C254.364 20.2651 254.366 20.2843 254.372 20.3023C254.378 20.3204 254.387 20.3368 254.401 20.3502C254.414 20.3637 254.43 20.3738 254.447 20.3797C254.465 20.3857 254.484 20.3873 254.502 20.3845H259.549C259.568 20.3873 259.586 20.3857 259.604 20.3797C259.622 20.3738 259.638 20.3637 259.651 20.3502C259.664 20.3368 259.674 20.3204 259.68 20.3023C259.686 20.2843 259.687 20.2651 259.684 20.2463V14.3266C259.68 14.2951 259.683 14.2628 259.692 14.2326C259.702 14.2023 259.719 14.1747 259.741 14.1522C259.763 14.1296 259.79 14.1127 259.82 14.1026C259.849 14.0926 259.881 14.0898 259.912 14.0945H262.795C262.826 14.0898 262.857 14.0926 262.887 14.1026C262.916 14.1127 262.943 14.1296 262.965 14.1522C262.988 14.1747 263.004 14.2023 263.014 14.2326C263.024 14.2628 263.026 14.2951 263.022 14.3266V29.6482C263.026 29.6798 263.024 29.712 263.014 29.7423C263.004 29.7726 262.988 29.8001 262.965 29.8226C262.943 29.8452 262.916 29.8622 262.887 29.8722C262.857 29.8822 262.826 29.885 262.795 29.8804H259.912C259.881 29.885 259.849 29.8822 259.82 29.8722C259.79 29.8622 259.763 29.8452 259.741 29.8226C259.719 29.8001 259.702 29.7726 259.692 29.7423C259.683 29.712 259.68 29.6798 259.684 29.6482V23.5682C259.687 23.5494 259.686 23.5302 259.68 23.5122C259.674 23.4942 259.664 23.4778 259.651 23.4643C259.638 23.4509 259.622 23.4408 259.604 23.4348C259.586 23.4289 259.568 23.4272 259.549 23.43H254.502C254.484 23.4283 254.466 23.4307 254.449 23.4371C254.431 23.4434 254.416 23.4536 254.403 23.4667C254.39 23.4799 254.38 23.4959 254.374 23.5134C254.368 23.5309 254.365 23.5496 254.367 23.5682V29.6482C254.372 29.6798 254.369 29.712 254.359 29.7423C254.349 29.7726 254.333 29.8001 254.311 29.8226C254.288 29.8452 254.262 29.8622 254.232 29.8722C254.202 29.8822 254.171 29.885 254.14 29.8804H251.257C251.226 29.885 251.194 29.8822 251.165 29.8722C251.135 29.8622 251.108 29.8452 251.086 29.8226C251.064 29.8001 251.047 29.7726 251.037 29.7423C251.028 29.712 251.025 29.6798 251.029 29.6482V14.3266Z" fill="black"/>
<path d="M270.432 14.3266C270.427 14.2951 270.43 14.2628 270.44 14.2326C270.45 14.2023 270.466 14.1747 270.488 14.1522C270.51 14.1296 270.537 14.1127 270.567 14.1026C270.597 14.0926 270.628 14.0898 270.659 14.0945H273.364C273.442 14.0939 273.52 14.1152 273.587 14.1561C273.655 14.197 273.71 14.2559 273.748 14.3266L279.2 24.2757H279.314V14.3266C279.309 14.2951 279.312 14.2628 279.322 14.2326C279.332 14.2023 279.348 14.1747 279.37 14.1522C279.392 14.1296 279.419 14.1127 279.449 14.1026C279.479 14.0926 279.51 14.0898 279.541 14.0945H282.111C282.141 14.0898 282.173 14.0926 282.203 14.1026C282.232 14.1127 282.259 14.1296 282.281 14.1522C282.303 14.1747 282.32 14.2023 282.33 14.2326C282.34 14.2628 282.342 14.2951 282.338 14.3266V29.6482C282.342 29.6798 282.34 29.712 282.33 29.7423C282.32 29.7726 282.303 29.8001 282.281 29.8226C282.259 29.8452 282.232 29.8622 282.203 29.8722C282.173 29.8822 282.141 29.885 282.111 29.8804H279.406C279.326 29.882 279.248 29.8612 279.179 29.8202C279.11 29.7793 279.054 29.7197 279.016 29.6482L273.564 19.7323H273.45V29.6482C273.455 29.6798 273.452 29.712 273.442 29.7423C273.432 29.7726 273.416 29.8001 273.394 29.8226C273.372 29.8452 273.345 29.8622 273.315 29.8722C273.285 29.8822 273.254 29.885 273.223 29.8804H270.659C270.628 29.885 270.597 29.8822 270.567 29.8722C270.537 29.8622 270.51 29.8452 270.488 29.8226C270.466 29.8001 270.45 29.7726 270.44 29.7423C270.43 29.712 270.427 29.6798 270.432 29.6482V14.3266Z" fill="black"/>
<path d="M284.858 14.3266C284.854 14.2951 284.856 14.2628 284.866 14.2326C284.876 14.2023 284.893 14.1747 284.915 14.1522C284.937 14.1296 284.964 14.1127 284.993 14.1026C285.023 14.0926 285.055 14.0898 285.085 14.0945H294.99C295.021 14.0898 295.052 14.0926 295.082 14.1026C295.112 14.1127 295.138 14.1296 295.161 14.1522C295.183 14.1747 295.199 14.2023 295.209 14.2326C295.219 14.2628 295.222 14.2951 295.217 14.3266V16.8084C295.222 16.8399 295.219 16.8721 295.209 16.9024C295.199 16.9327 295.183 16.9602 295.161 16.9828C295.138 17.0054 295.112 17.0223 295.082 17.0323C295.052 17.0424 295.021 17.0452 294.99 17.0405H288.315C288.296 17.0377 288.278 17.0394 288.26 17.0453C288.242 17.0513 288.226 17.0614 288.213 17.0748C288.2 17.0882 288.19 17.1046 288.184 17.1227C288.178 17.1407 288.177 17.1599 288.18 17.1787V20.3127C288.18 20.4066 288.223 20.4564 288.315 20.4564H293.859C293.89 20.4517 293.922 20.4545 293.951 20.4645C293.981 20.4745 294.008 20.4915 294.03 20.5141C294.052 20.5366 294.069 20.5642 294.078 20.5944C294.088 20.6247 294.091 20.6569 294.086 20.6885V23.1481C294.091 23.1797 294.088 23.2119 294.078 23.2422C294.069 23.2725 294.052 23.3 294.03 23.3226C294.008 23.3451 293.981 23.3621 293.951 23.3721C293.922 23.3821 293.89 23.3849 293.859 23.3803H288.315C288.296 23.3775 288.278 23.3791 288.26 23.3851C288.242 23.391 288.226 23.4011 288.213 23.4146C288.2 23.428 288.19 23.4444 288.184 23.4625C288.178 23.4805 288.177 23.4997 288.18 23.5185V26.7906C288.177 26.8094 288.178 26.8286 288.184 26.8466C288.19 26.8647 288.2 26.8811 288.213 26.8945C288.226 26.9079 288.242 26.918 288.26 26.924C288.278 26.93 288.296 26.9316 288.315 26.9288H294.974C295.004 26.9253 295.035 26.9289 295.064 26.9393C295.094 26.9497 295.12 26.9667 295.142 26.989C295.164 27.0113 295.18 27.0383 295.191 27.0681C295.201 27.0979 295.204 27.1296 295.201 27.1609V29.6482C295.205 29.6798 295.203 29.712 295.193 29.7423C295.183 29.7726 295.166 29.8001 295.144 29.8226C295.122 29.8452 295.095 29.8622 295.066 29.8722C295.036 29.8822 295.004 29.885 294.974 29.8804H285.069C285.038 29.885 285.007 29.8822 284.977 29.8722C284.947 29.8622 284.921 29.8452 284.898 29.8226C284.876 29.8001 284.86 29.7726 284.85 29.7423C284.84 29.712 284.837 29.6798 284.842 29.6482L284.858 14.3266Z" fill="black"/>
<path d="M306.167 29.8803C306.088 29.882 306.009 29.8612 305.941 29.8202C305.872 29.7792 305.816 29.7197 305.778 29.6482L303.03 24.8395H302.922L300.147 29.6482C300.11 29.7197 300.055 29.7794 299.987 29.8204C299.919 29.8614 299.841 29.8822 299.763 29.8803H296.625C296.594 29.8835 296.563 29.8773 296.535 29.8626C296.507 29.8479 296.484 29.8253 296.468 29.7974C296.451 29.7674 296.441 29.733 296.441 29.6979C296.441 29.6629 296.451 29.6285 296.468 29.5985L301.083 21.7331L296.831 14.3708C296.818 14.3403 296.811 14.3074 296.811 14.2741C296.811 14.2408 296.818 14.2079 296.831 14.1774C296.843 14.1494 296.864 14.1263 296.89 14.1113C296.917 14.0964 296.947 14.0905 296.977 14.0945H300.136C300.211 14.0954 300.285 14.1176 300.349 14.1586C300.413 14.1995 300.465 14.2576 300.498 14.3266L302.922 18.5992H302.987L305.442 14.3266C305.476 14.2576 305.528 14.1995 305.592 14.1586C305.656 14.1176 305.729 14.0954 305.805 14.0945H308.964C308.994 14.0905 309.024 14.0964 309.05 14.1113C309.077 14.1263 309.097 14.1494 309.11 14.1774C309.123 14.2079 309.13 14.2408 309.13 14.2741C309.13 14.3074 309.123 14.3403 309.11 14.3708L304.782 21.7331L309.418 29.5985C309.442 29.6626 309.442 29.7333 309.418 29.7974C309.406 29.8254 309.385 29.8485 309.359 29.8635C309.332 29.8784 309.302 29.8843 309.272 29.8803H306.167Z" fill="black"/>
<path d="M314.615 29.8804C314.584 29.885 314.552 29.8822 314.523 29.8722C314.493 29.8622 314.466 29.8452 314.444 29.8226C314.422 29.8001 314.405 29.7726 314.396 29.7423C314.386 29.712 314.383 29.6798 314.388 29.6482V17.2727C314.39 17.2562 314.389 17.2395 314.385 17.2236C314.38 17.2076 314.373 17.1926 314.363 17.1797C314.353 17.1668 314.34 17.1561 314.326 17.1483C314.311 17.1405 314.296 17.1358 314.279 17.1345H310.374C310.343 17.1391 310.311 17.1363 310.282 17.1263C310.252 17.1163 310.225 17.0993 310.203 17.0768C310.181 17.0542 310.164 17.0267 310.155 16.9964C310.145 16.9661 310.142 16.9339 310.147 16.9023V14.3266C310.142 14.2951 310.145 14.2628 310.155 14.2326C310.164 14.2023 310.181 14.1747 310.203 14.1522C310.225 14.1296 310.252 14.1127 310.282 14.1026C310.311 14.0926 310.343 14.0898 310.374 14.0945H321.798C321.829 14.0898 321.861 14.0926 321.89 14.1026C321.92 14.1127 321.947 14.1296 321.969 14.1522C321.991 14.1747 322.008 14.2023 322.018 14.2326C322.027 14.2628 322.03 14.2951 322.026 14.3266V16.9023C322.03 16.9339 322.027 16.9661 322.018 16.9964C322.008 17.0267 321.991 17.0542 321.969 17.0768C321.947 17.0993 321.92 17.1163 321.89 17.1263C321.861 17.1363 321.829 17.1391 321.798 17.1345H317.893C317.874 17.1317 317.856 17.1333 317.838 17.1393C317.82 17.1452 317.804 17.1553 317.791 17.1688C317.778 17.1822 317.768 17.1986 317.762 17.2166C317.756 17.2347 317.755 17.2539 317.758 17.2727V29.6482C317.762 29.6798 317.759 29.712 317.75 29.7423C317.74 29.7726 317.723 29.8001 317.701 29.8226C317.679 29.8452 317.652 29.8622 317.622 29.8722C317.593 29.8822 317.561 29.885 317.53 29.8804H314.615Z" fill="black"/>
</svg>
